<svg xmlns="http://www.w3.org/2000/svg" viewBox="0 0 100 100" role="img" aria-labelledby="title desc">
  <title id="title">Tian Lab</title>
  <desc id="desc">Two curved barrier forms frame a single molecular imaging probe.</desc>
  <g fill="#143F43">
    <path d="M48 4C24 5 5 25 5 50C5 72 19 91 39 96C44 81 45 70 37 60C25 46 32 36 40 26C45 19 47 11 48 4Z"/>
    <path d="M60 6C80 11 95 29 95 51C95 76 76 95 52 97C53 82 60 71 67 61C79 46 60 38 59 24C58 17 59 11 60 6Z"/>
  </g>
  <circle cx="49" cy="49" r="11.5" fill="#7FA99C"/>
</svg>
